<svg xmlns="http://www.w3.org/2000/svg" viewBox="0 0 512 512" id="booking"><path d="M244.868 279h-8a4 4 0 0 0-4 4v8a4 4 0 0 0 4 4h8a4 4 0 0 0 4-4v-8a4 4 0 0 0-4-4zm24 16h8a4 4 0 0 0 4-4v-8a4 4 0 0 0-4-4h-8a4 4 0 0 0-4 4v8a4 4 0 0 0 4 4zm-24 8h-8a4 4 0 0 0-4 4v8a4 4 0 0 0 4 4h8a4 4 0 0 0 4-4v-8a4 4 0 0 0-4-4zm-44-4a4 4 0 0 0-4-4h-8a4 4 0 0 0-4 4v8a4 4 0 0 0 4 4h8a4 4 0 0 0 4-4v-8zm124-4h-8a4 4 0 0 0-4 4v8a4 4 0 0 0 4 4h8a4 4 0 0 0 4-4v-8a4 4 0 0 0-4-4zm0 24h-8a4 4 0 0 0-4 4v8a4 4 0 0 0 4 4h8a4 4 0 0 0 4-4v-8a4 4 0 0 0-4-4zm-44-12a4 4 0 0 0-4-4h-8a4 4 0 0 0-4 4v8a4 4 0 0 0 4 4h8a4 4 0 0 0 4-4v-8z"></path><path d="M448.868-1h-384c-8.82 0-16 7.18-16 16v258.242c-4.875 4.396-8 10.692-8 17.758v1.367a23.988 23.988 0 0 0-8-1.367c-13.234 0-24 10.766-24 24v32.258c0 8.586 1.25 17.094 3.711 25.289l17.586 58.625a63.837 63.837 0 0 1 2.703 18.398V503c0 4.422 3.578 8 8 8h408c8.82 0 16-7.18 16-16V15c0-8.82-7.18-16-16-16zm-252 320h-8a4 4 0 0 0-4 4c0-8.93-3.036-17.112-8-23.775V287h32v56h-24v-12a4 4 0 0 0 4 4h8a4 4 0 0 0 4-4v-8a4 4 0 0 0-4-4zm-12 48.828V359h24v8c0 4.422 3.578 8 8 8h80c4.422 0 8-3.578 8-8v-8h40c4.422 0 8-3.578 8-8v-72c0-4.422-3.578-8-8-8h-40v-8c0-4.422-3.578-8-8-8h-80c-4.422 0-8 3.578-8 8v8h-40c-4.422 0-8 3.578-8 8v7.453c-2.556-1.124-5.2-2.078-8-2.648V231h232c8.82 0 16-7.18 16-16v-96c0-8.82-7.18-16-16-16h-256c-8.82 0-16 7.18-16 16v66.242c-4.875 4.396-8 10.692-8 17.758v57.367a23.988 23.988 0 0 0-8-1.367V47h320v384H154.6c1.061-1.576 2.028-3.211 3.252-4.68l10.328-12.398a72.15 72.15 0 0 0 16.688-46.094zm88-40.828h-32c-4.422 0-8 3.578-8 8v24h-8v-88h64v88h-8v-24c0-4.422-3.578-8-8-8zm32 16v-56h32v56h-32zM168.204 175c4.773 0 8.664 3.586 8.664 8s-3.891 8-8.664 8h-15.336v-16h15.336zm-15.336-16v-16h15.336c4.773 0 8.664 3.586 8.664 8s-3.891 8-8.664 8h-15.336zm15.336 48c13.602 0 24.664-10.766 24.664-24 0-6.169-2.471-11.744-6.415-16 3.944-4.256 6.415-9.831 6.415-16 0-13.234-11.062-24-24.664-24h-23.336c-4.422 0-8 3.578-8 8v45.474c-2.515-.896-5.181-1.474-8-1.474v-60h256v96h-232v-8h15.336zm88.664 256c4.414 0 8 3.586 8 8s-3.586 8-8 8-8-3.586-8-8 3.586-8 8-8zm-123.095-26.784c-3.184 8.231-4.905 17.021-4.905 25.956V495h-80v-45.43a79.909 79.909 0 0 0-3.375-22.992l-17.586-58.633a71.782 71.782 0 0 1-3.039-20.688V315c0-4.414 3.586-8 8-8s8 3.586 8 8v4c0 4.422 3.578 8 8 8s8-3.578 8-8v-28c0-4.414 3.586-8 8-8s8 3.586 8 8v28c0 4.422 3.578 8 8 8s8-3.578 8-8v-36c0-4.414 3.586-8 8-8s8 3.586 8 8v36c0 4.422 3.578 8 8 8s8-3.578 8-8V203c0-4.414 3.586-8 8-8s8 3.586 8 8v132c0 4.422 3.578 8 8 8s8-3.578 8-8v-34.633c9.312 3.305 16 12.203 16 22.633v44.828a56.1 56.1 0 0 1-12.984 35.852l-10.328 12.398c-4.901 5.884-8.744 12.508-11.537 19.541a7.63 7.63 0 0 0-.246.597z"></path><path d="M228.868 207c15.438 0 28-12.562 28-28s-12.562-28-28-28-28 12.562-28 28 12.562 28 28 28zm0-40c6.617 0 12 5.383 12 12s-5.383 12-12 12-12-5.383-12-12 5.383-12 12-12zm64 40c15.438 0 28-12.562 28-28s-12.562-28-28-28-28 12.562-28 28 12.562 28 28 28zm0-40c6.617 0 12 5.383 12 12s-5.383 12-12 12-12-5.383-12-12 5.383-12 12-12zm44 40c4.422 0 8-3.578 8-8v-9.367l18.922 15.546a7.939 7.939 0 0 0 5.07 1.82c2.312 0 4.609-1 6.188-2.922a7.997 7.997 0 0 0-1.102-11.258l-16.578-13.625 16.664-14.086a7.998 7.998 0 0 0 .945-11.273c-2.836-3.375-7.891-3.812-11.273-.945l-18.836 15.917V135c0-4.422-3.578-8-8-8s-8 3.578-8 8v64c0 4.422 3.578 8 8 8z"></path></svg>