<svg xmlns="http://www.w3.org/2000/svg" viewBox="0 0 32 32" id="customer-desk"><path fill="#01a6ff" d="M16.6 17.3l-4.7 1.6C10.2 19.4 9 21 9 22.8v3.7h21v-3.7c0-1.8-1.2-3.4-2.9-4l-4.7-1.6"></path><path fill="#006ef4" d="M20.5 26.5c.8 0 1.5-.7 1.5-1.5v-2c0-.6-.4-.9-1-.9s-1-.4-1-1v-3.9h-3.4l-4.7 1.6c-1.7.6-2.9 2.2-2.9 4v3.7h11.5z"></path><path fill="#f0c9ae" d="M16.5 13.8v3.1c0 1.6 2.9 2.9 2.9 2.9s2.9-1.3 2.9-2.9v-3.1h-5.8z"></path><path fill="#e2b698" d="M16.5 15.6c.9.5 1.9.9 2.9.9 1.1 0 2.1-.3 2.9-.9v-1.9h-5.9v1.9z"></path><path fill="#004463" d="M24 13.6h-3.5c-.3 0-.5-.2-.5-.5s.2-.5.5-.5H24c1.1 0 2-.9 2-2V8.9c0-.3.2-.5.5-.5s.5.2.5.5v1.7c0 1.6-1.4 3-3 3z"></path><path fill="#006ef4" d="M30 26.5v-3.7c0-.8-.2-1.5-.6-2.2-2.5.3-4.4 2.4-4.4 5v.8h5z"></path><path fill="#8a6845" d="M30.5 26.5h-28c-.8 0-1.5.7-1.5 1.5s.7 1.5 1.5 1.5h28c.8 0 1.5-.7 1.5-1.5s-.7-1.5-1.5-1.5z"></path><path fill="#745539" d="M30 31.5v-2H3v2"></path><path fill="#607d95" d="M15 10.5h-2c-.6 0-1-.4-1-1v-1c0-.6.4-1 1-1h1.5l.5 3zM24 10.5h2c.6 0 1-.4 1-1v-1c0-.6-.4-1-1-1h-2v3z"></path><path fill="#8a6845" d="M24.7 8.3h.3l1-2.8c.3-1.3-.7-2.5-2-2.5C24 1.5 22.6.3 21.1.6l-6 1c-1.4.2-2.3 1.6-2.1 2.9l1 3.8h.3"></path><path fill="#f0c9ae" d="M24.7 8.1c-.5 0-.9-.4-.9-.9V5.5c0-.4-.4-.6-.7-.3-1.7 1.3-4 1.8-6.1 1.4l-.9-.2c-.5 0-.9.4-.9.9s-.4.9-.9.9H14v1.7c0 3 2.5 5.5 5.5 5.5S25 12.8 25 9.8V8.1h-.3z"></path><path fill="#e2b698" d="M18.1 16.8v-2.1h-1.5v2.1c0 1.6 2.9 2.9 2.9 2.9s.3-.1.8-.4c-.9-.4-2.2-1.4-2.2-2.5z"></path><path fill="#745539" d="M16.6 1.5l5.6-.9c-.3-.1-.7-.1-1.1-.1l-6 1c-1.4.2-2.3 1.6-2.1 2.9l1 3.8h1.5l-1-3.8c-.2-1.3.7-2.6 2.1-2.9z"></path><path fill="#e2b698" d="M23.8 5.5c0-.4-.4-.6-.7-.3C21.4 6.5 19.2 7 17 6.6l-.9-.2c-.2 0-.3 0-.5.1 0 0-.2.1-.3.3-.1.1-.1.3-.1.4 0 .5-.4.9-.8.9H14V10c0 3.1 2.5 5.5 5.5 5.5.3 0 .6 0 .9-.1-2.7-.4-4.7-2.7-4.7-5.5v-.4c0-.7.6-1.3 1.3-1.2 2.1.4 4.3-.1 6.1-1.4.3-.2.7 0 .7.3V5.5z"></path><path fill="#607d95" d="M3 13.5h15v11H3z"></path><path fill="#4b6c85" d="M5 18.5v-5H3v10h15v-2H8c-1.7 0-3-1.3-3-3z"></path><circle cx="10.5" cy="18.5" r="1" fill="#004463"></circle><path fill="#4b6c85" d="M20 23.5H3V25c0 .8.7 1.5 1.5 1.5h14c.8 0 1.5-.7 1.5-1.5v-1.5z"></path><path fill="#40657c" d="M5 23.5H3V25c0 .8.7 1.5 1.5 1.5h14c.8 0 1.5-.7 1.5-1.5H6.5c-.8 0-1.5-.7-1.5-1.5z"></path><path fill="#004463" d="M25.5 11.8c-.4.5-.9.7-1.6.7h-3.5c-.3 0-.5.2-.5.5s.2.5.5.5H24c1.2 0 2.2-.7 2.7-1.7h-1.2z"></path></svg>