<svg xmlns="http://www.w3.org/2000/svg" xmlns:xlink="http://www.w3.org/1999/xlink" viewBox="0 0 512 512" id="Mobile"><defs><linearGradient id="a" x1="256" x2="256" y1="42" y2="466.302" gradientUnits="userSpaceOnUse"><stop offset="0" stop-color="#fe9526" class="stopColor00efd1 svgShape"></stop><stop offset="1" stop-color="#167ffc" class="stopColor00acea svgShape"></stop></linearGradient><linearGradient id="b" x1="329.506" x2="329.506" y1="42" y2="466.302" xlink:href="#a"></linearGradient><linearGradient id="c" x1="280" x2="280" y1="42" y2="466.302" xlink:href="#a"></linearGradient><linearGradient id="d" x1="260" x2="260" y1="42" y2="466.302" xlink:href="#a"></linearGradient><linearGradient id="e" x1="239" x2="239" y1="42" y2="466.302" xlink:href="#a"></linearGradient></defs><path fill="url(#a)" d="M399,60a47,47,0,0,0-47-47H160a47,47,0,0,0-47,47V451a47,47,0,0,0,47,47H352a47,47,0,0,0,47-47ZM127,106H385V390H127Zm32.857-79H352.143C370.339,27,385,42.173,385,60.369V92H127V60.369C127,42.173,141.661,27,159.857,27ZM352.143,485H159.857C141.661,485,127,469.827,127,451.631V404H385v47.631C385,469.827,370.339,485,352.143,485Z"></path><path fill="url(#a)" d="M221.964 64h68.072a7 7 0 0 0 0-14H221.964a7 7 0 0 0 0 14zM256 416.56a27.945 27.945 0 1 0 27.945 27.945A27.977 27.977 0 0 0 256 416.56zm0 41.89a13.945 13.945 0 1 1 13.945-13.945A13.961 13.961 0 0 1 256 458.45zM357.714 203H311V161.828A7.042 7.042 0 0 0 303.785 155h-88.7A6.931 6.931 0 0 0 208 161.828V228H180.126c-3.866 0-7.126 2.662-7.126 6.528V257H154.286c-3.866 0-7.286 2.743-7.286 6.609v86.563A7.105 7.105 0 0 0 154.286 357H357.714A7.105 7.105 0 0 0 365 350.172V210.229A7.448 7.448 0 0 0 357.714 203zM297 169V343H222V235.487c0-.314.073-.633.073-.959s-.073-.644-.073-.959V169zM161 271h19.126c3.866 0 6.874-3.525 6.874-7.391V242h21V343H161zm190 72H311V217h40z"></path><path fill="url(#b)" d="M325.141 289h8.731a7 7 0 1 0 0-14h-8.731a7 7 0 0 0 0 14zM325.141 310h8.731a7 7 0 1 0 0-14h-8.731a7 7 0 0 0 0 14zM333.872 317h-8.731a7 7 0 0 0 0 14h8.731a7 7 0 1 0 0-14z"></path><path fill="url(#c)" d="M280,254.27a7,7,0,0,0,7-7V233.863a7,7,0,0,0-14,0V247.27A7,7,0,0,0,280,254.27Z"></path><path fill="url(#d)" d="M260,254.27a7,7,0,0,0,7-7V233.863a7,7,0,0,0-14,0V247.27A7,7,0,0,0,260,254.27Z"></path><path fill="url(#e)" d="M239,254.27a7,7,0,0,0,7-7V233.863a7,7,0,0,0-14,0V247.27A7,7,0,0,0,239,254.27Z"></path><path fill="url(#b)" d="M325.141 247h8.731a7 7 0 1 0 0-14h-8.731a7 7 0 0 0 0 14zM325.141 268h8.731a7 7 0 1 0 0-14h-8.731a7 7 0 0 0 0 14z"></path><path fill="url(#c)" d="M280,218.828a7,7,0,0,0,7-7V198.421a7,7,0,0,0-14,0v13.407A7,7,0,0,0,280,218.828Z"></path><path fill="url(#d)" d="M260,218.828a7,7,0,0,0,7-7V198.421a7,7,0,0,0-14,0v13.407A7,7,0,0,0,260,218.828Z"></path><path fill="url(#e)" d="M239,218.828a7,7,0,0,0,7-7V198.421a7,7,0,0,0-14,0v13.407A7,7,0,0,0,239,218.828Z"></path><path fill="url(#c)" d="M280,289.711a7,7,0,0,0,7-7V269.305a7,7,0,0,0-14,0v13.406A7,7,0,0,0,280,289.711Z"></path><path fill="url(#d)" d="M260,289.711a7,7,0,0,0,7-7V269.305a7,7,0,0,0-14,0v13.406A7,7,0,0,0,260,289.711Z"></path><path fill="url(#e)" d="M239,289.711a7,7,0,0,0,7-7V269.305a7,7,0,0,0-14,0v13.406A7,7,0,0,0,239,289.711Z"></path><path fill="url(#c)" d="M280,325.153a7,7,0,0,0,7-7V304.746a7,7,0,0,0-14,0v13.407A7,7,0,0,0,280,325.153Z"></path><path fill="url(#d)" d="M260,325.153a7,7,0,0,0,7-7V304.746a7,7,0,0,0-14,0v13.407A7,7,0,0,0,260,325.153Z"></path><path fill="url(#e)" d="M239,325.153a7,7,0,0,0,7-7V304.746a7,7,0,0,0-14,0v13.407A7,7,0,0,0,239,325.153Z"></path></svg>