<svg id="SvgjsSvg1191" width="288" height="288" xmlns="http://www.w3.org/2000/svg" version="1.1" xmlns:xlink="http://www.w3.org/1999/xlink" xmlns:svgjs="http://svgjs.com/svgjs"><defs id="SvgjsDefs1192"></defs><g id="SvgjsG1193"><svg xmlns="http://www.w3.org/2000/svg" data-name="Layer 1" viewBox="0 0 512 512" width="288" height="288"><path fill="#ffcd85" d="M270.93 244.56a16.665 16.665 0 0 1-14.38 16.47 15.713 15.713 0 0 1-2.29.16 16.659 16.659 0 0 1-16.54-14.63l-.4-3.25-5.65-45.86-8.97-5.85-16.61-10.84-6.44-4.2a14.49 14.49 0 0 0-11.32-1.97l-.25-.09-.12.17a14.59 14.59 0 0 0-10.71 11.85c-.04.22-.07.45-.09.67a14.128 14.128 0 0 0-.09 1.59q0 .45.03.9l.16 1.44-5.91 6.5-131.87-7.97L61.32 93.3q3.195.285 6.51.5 4.275.27 8.35.39c.79-.05 1.59-.11 2.38-.16l13.62-.93q58.575-3.96 117.14-7.94a19.75 19.75 0 0 1 16.79 10.83q13.71 27.12 27.43 54.25c.02.03.03.07.05.1l3.46 6.52a65.446 65.446 0 0 1 7.25 23.75l6.54 62.17c.06.6.09 1.19.09 1.78Z" class="colorffcd85 svgShape"></path><path fill="#ffc570" d="M61.18 94.19c.79-.05 1.59-.11 2.38-.16l3.826-.261q-3.083-.202-6.066-.469l-.201.888zm209.66 148.59-6.54-62.17a65.446 65.446 0 0 0-7.25-23.75l-3.46-6.52c-.02-.03-.03-.07-.05-.1q-13.71-27.12-27.43-54.25a19.75 19.75 0 0 0-16.79-10.83l-10.553.715A19.72 19.72 0 0 1 211.11 95.99q13.71 27.12 27.43 54.25c.02.03.03.07.05.1l3.46 6.52a65.446 65.446 0 0 1 7.25 23.75l6.54 62.17c.06.6.09 1.19.09 1.78a16.651 16.651 0 0 1-9.18 14.838 16.606 16.606 0 0 0 7.51 1.792 15.713 15.713 0 0 0 2.29-.16 16.665 16.665 0 0 0 14.38-16.47c0-.59-.03-1.18-.09-1.78zm-97.51-68.19-.25-.09-.12.17a14.59 14.59 0 0 0-10.71 11.85c-.04.22-.07.45-.09.67a14.128 14.128 0 0 0-.09 1.59q0 .45.03.9l.16 1.44-5.129 5.64 14.219.86 5.91-6.5-.16-1.44q-.03-.45-.03-.9a14.128 14.128 0 0 1 .09-1.59c.02-.22.05-.45.09-.67a14.574 14.574 0 0 1 6.908-10.246 14.483 14.483 0 0 0-10.828-1.684z" class="colorffc570 svgShape"></path><rect width="311.42" height="203.94" x="193.08" y="245.145" fill="#66c1ff" rx="30" class="color66c1ff svgShape"></rect><path fill="#4eb7ff" d="M474.5 245.145h-30a29.998 29.998 0 0 1 30 30v143.94a29.998 29.998 0 0 1-30 30h30a29.998 29.998 0 0 0 30-30v-143.94a29.998 29.998 0 0 0-30-30Z" class="color4eb7ff svgShape"></path><rect width="68.088" height="27.625" x="409.975" y="271.578" fill="#ffffff" rx="4" class="colorfff svgShape"></rect><path fill="#eeeeee" d="M474.063 271.578h-15a4 4 0 0 1 4 4v19.624a4 4 0 0 1-4 4h15a4 4 0 0 0 4-4v-19.624a4 4 0 0 0-4-4Z" class="coloreee svgShape"></path><rect width="60.429" height="44.027" x="219.517" y="271.578" fill="#ffe966" rx="4" class="colorffe966 svgShape"></rect><path fill="#ffe236" d="M275.946 271.578h-15a4 4 0 0 1 4 4v36.026a4 4 0 0 1-4 4h15a4 4 0 0 0 4-4v-36.026a4 4 0 0 0-4-4Z" class="colorffe236 svgShape"></path><circle cx="415.563" cy="401.585" r="17.5" fill="#ffe966" class="colorffe966 svgShape"></circle><circle cx="445.563" cy="401.585" r="17.5" fill="#ffc166" class="colorffc166 svgShape"></circle><path fill="#ffb74e" d="M445.563 384.085a17.424 17.424 0 0 0-6.25 1.17 17.477 17.477 0 0 1 0 32.66 17.494 17.494 0 1 0 6.25-33.83Z" class="colorffb74e svgShape"></path><path fill="#ffc570" d="m137.854 217.268-30.315 7.7a12.439 12.439 0 0 0-9.332 13.118l.02.225a12.439 12.439 0 0 0 12.827 11.37l80.222-2.806Z" class="colorffc570 svgShape"></path><path fill="#ffc570" d="m166.818 233.596-31.02 21.006a13.497 13.497 0 0 0-5.547 14.365 13.497 13.497 0 0 0 17.484 9.58l71.86-24.592-19.816-11.358c-10.987-6.298-32.961-9.001-32.961-9.001Z" class="colorffc570 svgShape"></path><path fill="#ffcd85" d="m222.7 191.6-16.61-10.84 16.63 10.84h-.02zM257.6 271.58a17.188 17.188 0 0 1-25.29 11.25l-12.79-7.28-.42-.24-23.07-13.14-.16-.09-3.6-2.04-21.83-12.43-13.2-7.52-11.47-6.53-30.76-10.49-48.32-16.47a39.762 39.762 0 0 1-9.83-4.94l-17.38-12.01 136.59 1.45 1.19.02a14.47 14.47 0 0 0 5.38 9.14l54.68 43.05 2.32 1.83 11.79 9.28a17.055 17.055 0 0 1 5.12 6.61 17.287 17.287 0 0 1 1.05 10.55Z" class="colorffcd85 svgShape"></path><path fill="#ff6666" d="m0 64.749 56.234 14.14a9 9 0 0 1 6.787 10.767L38.747 196.74a9 9 0 0 1-10.767 6.788L0 198.992" class="colorf66 svgShape"></path><path fill="#272a33" d="M295.556 355.166h30.428a7.5 7.5 0 0 0 0-15h-30.428a7.5 7.5 0 0 0 0 15Zm-76.04 0h30.43a7.5 7.5 0 0 0 0-15h-30.43a7.5 7.5 0 0 0 0 15ZM474.5 237.639H277.84l-6.086-57.816a72.466 72.466 0 0 0-8.083-26.481l-3.37-6.354-27.494-54.373a27.275 27.275 0 0 0-23.163-14.948 7.402 7.402 0 0 0-.832.01l-14.722.999q-51.21 3.474-102.422 6.941l-15.627 1.065a238.685 238.685 0 0 1-5.344-.234 16.528 16.528 0 0 0-12.712-14.852L9.322 59.406a7.5 7.5 0 1 0-3.645 14.55l48.734 12.208.165.039a1.502 1.502 0 0 1 1.13 1.795L31.434 195.083a1.506 1.506 0 0 1-1.795 1.132l-20.48-4.643a7.5 7.5 0 0 0-3.317 14.629l20.481 4.643a16.482 16.482 0 0 0 18.306-8.523l7.974 5.513a47.186 47.186 0 0 0 11.668 5.864l30.998 10.568a19.873 19.873 0 0 0-4.546 14.28c.012.218.031.412.05.575a19.913 19.913 0 0 0 19.83 18.066c.235 0 .47-.004.707-.012q6.567-.228 13.14-.46a20.981 20.981 0 0 0 25.719 28.93l35.412-12.117V419.08a37.542 37.542 0 0 0 37.5 37.5H474.5a37.542 37.542 0 0 0 37.5-37.5V275.14a37.542 37.542 0 0 0-37.5-37.5Zm-363.711 4.545a4.931 4.931 0 0 1-5.086-4.508 7.765 7.765 0 0 0-.015-.157l-.006-.07a4.922 4.922 0 0 1 3.697-5.209l5.315-1.352 27.982 9.54.37.21-.651.442q-15.81.56-31.606 1.104Zm34.506 29.275a5.922 5.922 0 0 1-1.936.321 6.001 6.001 0 0 1-3.356-10.97l17.578-11.896 20.12 11.456Zm4.186-44.417a7.45 7.45 0 0 0-1.291-.581l-30.601-10.433c-.04-.015-.082-.028-.123-.042l-48.375-16.492a32.175 32.175 0 0 1-7.966-4.003l-12.453-8.61 19.394-85.557c2.673.162 5.327.287 7.893.363a6.714 6.714 0 0 0 .702-.012l16.025-1.092q51.214-3.463 102.42-6.942l14.256-.966a12.26 12.26 0 0 1 10.054 6.699l8.347 16.507a7.458 7.458 0 0 0 .868 3.403l18.335 34.575.1.194c.01.022.026.04.037.063l3.316 6.253a57.525 57.525 0 0 1 6.417 21.024l5.92 56.246h-18.578l-5.065-41.106a7.502 7.502 0 0 0-3.345-5.364l-8.802-5.743c-.051-.036-.098-.075-.151-.11l-23.074-15.042a22.108 22.108 0 0 0-31.35 7.714 21.897 21.897 0 0 0-2.539 7.294c-.065.377-.117.766-.153 1.144a21.615 21.615 0 0 0-.13 2.354A21.914 21.914 0 0 0 178 206.152l56.865 44.771.016.013 11.907 9.374a9.525 9.525 0 0 1 2.892 3.73 9.796 9.796 0 0 1 .594 5.93 9.674 9.674 0 0 1-9.475 7.61 9.557 9.557 0 0 1-4.78-1.268Zm110.228 56.744a24.808 24.808 0 0 0 3.108-4.706h9.633v29.02h-45.43v-19.651l1.58.9a24.697 24.697 0 0 0 31.109-5.563Zm-32.06-57.635-40.388-31.799a7.02 7.02 0 0 1-2.692-5.572 6.591 6.591 0 0 1 .043-.744l.017-.178.032-.186a6.944 6.944 0 0 1 .814-2.349 7.107 7.107 0 0 1 10.077-2.481l6.418 4.183.021.016 22.66 14.786Zm269.35 192.929a22.526 22.526 0 0 1-22.5 22.5H223.08a22.526 22.526 0 0 1-22.5-22.5V273.395l11.44 6.514v31.69a11.513 11.513 0 0 0 11.5 11.5h52.43a11.513 11.513 0 0 0 11.5-11.5v-36.02a11.513 11.513 0 0 0-11.5-11.5h-10.782a24.174 24.174 0 0 0-4.987-11.44H474.5a22.526 22.526 0 0 1 22.5 22.5Zm-51.436-42.495a24.87 24.87 0 0 0-15 5.013 25 25 0 1 0 0 39.973 24.995 24.995 0 1 0 15-44.986Zm-23.75 32.793a10 10 0 1 1 0-15.587 24.912 24.912 0 0 0 0 15.587Zm23.75 2.207a9.946 9.946 0 0 1-6.25-2.207 24.912 24.912 0 0 0 0-15.587 9.996 9.996 0 1 1 6.25 17.794Zm-226.046-15h60.428a7.5 7.5 0 0 0 0-15h-60.428a7.5 7.5 0 0 0 0 15Zm254.546-132.508h-60.088a11.513 11.513 0 0 0-11.5 11.5v19.625a11.513 11.513 0 0 0 11.5 11.5h60.088a11.513 11.513 0 0 0 11.5-11.5v-19.625a11.513 11.513 0 0 0-11.5-11.5Zm-3.5 27.625h-53.088v-12.625h53.088Zm7.5 48.464h-30.43a7.5 7.5 0 0 0 0 15h30.43a7.5 7.5 0 0 0 0-15Zm-138.118 71.419H219.517a7.5 7.5 0 0 0 0 15h120.428a7.5 7.5 0 0 0 0-15Zm69.578-63.92a7.5 7.5 0 0 0-7.5-7.5h-30.428a7.5 7.5 0 0 0 0 15h30.428a7.5 7.5 0 0 0 7.5-7.5Z" class="color272a33 svgShape"></path></svg></g></svg>