<svg xmlns="http://www.w3.org/2000/svg" viewBox="0 0 24 24" id="Settings"><g fill="#595bd4" class="color000000 svgShape"><circle cx="10" cy="8" r="1" fill="#595bd4" class="color000000 svgShape"></circle><circle cx="14" cy="16" r="1" fill="#595bd4" class="color000000 svgShape"></circle><path d="M12,0A12,12,0,1,0,24,12,12.01,12.01,0,0,0,12,0Zm6,17H16.816a2.982,2.982,0,0,1-5.632,0H6a1,1,0,0,1,0-2h5.184a2.982,2.982,0,0,1,5.632,0H18a1,1,0,0,1,0,2Zm0-8H12.816A2.982,2.982,0,0,1,7.184,9H6A1,1,0,0,1,6,7H7.184a2.982,2.982,0,0,1,5.632,0H18a1,1,0,0,1,0,2Z" fill="#595bd4" class="color000000 svgShape"></path></g></svg>