<svg id="SvgjsSvg1001" width="288" height="288" xmlns="http://www.w3.org/2000/svg" version="1.1" xmlns:xlink="http://www.w3.org/1999/xlink" xmlns:svgjs="http://svgjs.com/svgjs"><defs id="SvgjsDefs1002"></defs><g id="SvgjsG1008"><svg xmlns="http://www.w3.org/2000/svg" fill="none" viewBox="0 0 24 24" width="288" height="288"><path fill="#46c3db" d="M4 2.25C2.48122 2.25 1.25 3.48122 1.25 5V15C1.25 16.5188 2.48122 17.75 4 17.75H6.25V21C6.25 21.2929 6.42051 21.559 6.68661 21.6814C6.95271 21.8038 7.26571 21.7601 7.48809 21.5694L11.9441 17.75H20C21.5188 17.75 22.75 16.5188 22.75 15V5C22.75 3.48122 21.5188 2.25 20 2.25H4Z" class="color5E94FF svgShape"></path><path fill="#cfcc21" fill-rule="evenodd" d="M5 5.25C4.58579 5.25 4.25 5.58579 4.25 6V14C4.25 14.4142 4.58579 14.75 5 14.75H12C12.4142 14.75 12.75 14.4142 12.75 14V6C12.75 5.58579 12.4142 5.25 12 5.25H5zM13.75 6C13.75 5.58579 14.0858 5.25 14.5 5.25H19.5C19.9142 5.25 20.25 5.58579 20.25 6 20.25 6.41421 19.9142 6.75 19.5 6.75H14.5C14.0858 6.75 13.75 6.41421 13.75 6zM13.75 14C13.75 13.5858 14.0858 13.25 14.5 13.25H19.5C19.9142 13.25 20.25 13.5858 20.25 14 20.25 14.4142 19.9142 14.75 19.5 14.75H14.5C14.0858 14.75 13.75 14.4142 13.75 14zM13.75 10C13.75 9.58579 14.0858 9.25 14.5 9.25H19.5C19.9142 9.25 20.25 9.58579 20.25 10 20.25 10.4142 19.9142 10.75 19.5 10.75H14.5C14.0858 10.75 13.75 10.4142 13.75 10z" clip-rule="evenodd" class="colorECEFF1 svgShape"></path></svg></g></svg>