<svg id="SvgjsSvg1264" width="288" height="288" xmlns="http://www.w3.org/2000/svg" version="1.1" xmlns:xlink="http://www.w3.org/1999/xlink" xmlns:svgjs="http://svgjs.com/svgjs"><defs id="SvgjsDefs1265"></defs><g id="SvgjsG1266"><svg xmlns="http://www.w3.org/2000/svg" data-name="Layer 1" viewBox="0 0 512 512" width="288" height="288"><circle cx="256" cy="256" r="99.299" fill="#fed947" class="colorfed947 svgShape"></circle><path fill="#fed030" d="M256 156.701a100.076 100.076 0 0 0-15 1.127 99.313 99.313 0 0 1 0 196.344 99.305 99.305 0 1 0 15-197.47Z" class="colorfed030 svgShape"></path><path fill="#f8be32" d="M256 362.799A106.799 106.799 0 1 1 362.799 256 106.92 106.92 0 0 1 256 362.799Zm0-198.598A91.799 91.799 0 1 0 347.799 256 91.903 91.903 0 0 0 256 164.201Z" class="colorf8be32 svgShape"></path><path fill="#eb304a" d="M431.045 176.402h-62.131a28.455 28.455 0 0 1-28.455-28.455 37.295 37.295 0 0 1 19.754-32.912L399.98 93.84l39.766 21.194a37.295 37.295 0 0 1 19.754 32.912 28.455 28.455 0 0 1-28.455 28.455Z" class="coloreb304a svgShape"></path><path fill="#e4222e" d="M439.746 115.035 399.98 93.84l-15 7.994 24.766 13.2a37.295 37.295 0 0 1 19.754 32.912 28.455 28.455 0 0 1-28.455 28.455h30a28.455 28.455 0 0 0 28.455-28.455 37.295 37.295 0 0 0-19.754-32.912Z" class="colore4222e svgShape"></path><path fill="#fbbf7d" d="M384.264 80.16h32.076a2.223 2.223 0 0 1 2.223 2.222V98.64a18.26 18.26 0 0 1-18.26 18.261 18.26 18.26 0 0 1-18.262-18.26V82.381a2.223 2.223 0 0 1 2.223-2.222Z" class="colorfbbf7d svgShape"></path><path fill="#fdd8ae" d="m420.91 43.43 15 3.51v8.95a35.93 35.93 0 0 1-71.86 0v-8l15-4.46c0-19.84 1.09-20.93 20.93-20.93a35.807 35.807 0 0 1 25.4 10.52c6.51 6.51-4.47.49-4.47 10.41Z" class="colorfdd8ae svgShape"></path><path fill="#fbbf7d" d="M425.38 18.02a35.937 35.937 0 0 0-32.9-9.73 35.941 35.941 0 0 1 28.43 35.14v12.46a35.944 35.944 0 0 1-28.43 35.14 35.936 35.936 0 0 0 43.43-35.14V43.43a35.816 35.816 0 0 0-10.53-25.41Z" class="colorfbbf7d svgShape"></path><path fill="#787681" d="M435.91 43.43v3.51a52.698 52.698 0 0 1-31.46 2.09 49.594 49.594 0 0 1-13.6-5.73 23.548 23.548 0 0 1-26.8 4.59v-4.46a35.93 35.93 0 0 1 71.86 0Z" class="color787681 svgShape"></path><path fill="#57565c" d="M425.38 18.02a35.92 35.92 0 0 0-41.41-6.754c.337-.01.672-.026 1.01-.026a35.935 35.935 0 0 1 35.93 35.93v3.19a55.718 55.718 0 0 0 15-3.42v-3.51a35.816 35.816 0 0 0-10.53-25.41Z" class="color57565c svgShape"></path><path fill="#227fc0" d="M143.086 504.37H80.955A28.455 28.455 0 0 1 52.5 475.915a37.295 37.295 0 0 1 19.754-32.912l39.766-21.193 39.767 21.193a37.295 37.295 0 0 1 19.754 32.912 28.455 28.455 0 0 1-28.455 28.455Z" class="color227fc0 svgShape"></path><path fill="#2370b5" d="m151.787 443.003-39.767-21.194-15 7.995 24.767 13.199a37.295 37.295 0 0 1 19.754 32.912 28.455 28.455 0 0 1-28.455 28.455h30a28.455 28.455 0 0 0 28.455-28.455 37.295 37.295 0 0 0-19.754-32.912Z" class="color2370b5 svgShape"></path><path fill="#fbbf7d" d="M130.6 410.35v16.26a17.466 17.466 0 0 1-.28 3.17 18.257 18.257 0 0 1-36.24-3.17v-16.26a2.221 2.221 0 0 1 2.22-2.22h32.08a2.215 2.215 0 0 1 2.22 2.22Z" class="colorfbbf7d svgShape"></path><path fill="#fdd8ae" d="m132.95 371.398 15 3.51v8.95a35.93 35.93 0 0 1-71.86 0v-12.46c0-19.84 16.09-20.93 35.93-20.93a35.807 35.807 0 0 1 25.4 10.52c6.51 6.51-4.47.49-4.47 10.41Z" class="colorfdd8ae svgShape"></path><path fill="#fbbf7d" d="M137.42 345.988a35.937 35.937 0 0 0-32.898-9.73 35.941 35.941 0 0 1 28.429 35.14v12.46a35.944 35.944 0 0 1-28.43 35.14 35.936 35.936 0 0 0 43.43-35.14v-12.46a35.816 35.816 0 0 0-10.53-25.41Z" class="colorfbbf7d svgShape"></path><path fill="#787681" d="M147.95 371.398v3.51a52.698 52.698 0 0 1-31.46 2.09 49.594 49.594 0 0 1-13.6-5.73 36.253 36.253 0 0 1-26.8 4.59v-4.46a35.93 35.93 0 0 1 71.86 0Z" class="color787681 svgShape"></path><path fill="#57565c" d="M137.42 345.988a35.945 35.945 0 0 0-40.905-7.008c.17-.002.336-.012.506-.012a35.935 35.935 0 0 1 35.93 35.93v3.43a55.717 55.717 0 0 0 15-3.42v-3.51a35.816 35.816 0 0 0-10.53-25.41Z" class="color57565c svgShape"></path><path fill="#3c3b41" d="M368.91 183.9h62.14A35.94 35.94 0 0 0 467 147.95a44.73 44.73 0 0 0-23.722-39.539l-17.237-9.187c.004-.195.02-.389.02-.584v-8.046a43.389 43.389 0 0 0 17.35-34.704V43.43a43.43 43.43 0 0 0-86.862 0v12.46a43.392 43.392 0 0 0 17.991 35.168v7.582c0 .086.007.17.008.256l-17.865 9.515a44.816 44.816 0 0 0-23.723 39.54 35.99 35.99 0 0 0 35.95 35.95Zm2.639-128.01V43.43a28.427 28.427 0 0 1 56.788-1.931 43.742 43.742 0 0 1-22.042.267 42.283 42.283 0 0 1-11.547-4.872 7.5 7.5 0 1 0-7.793 12.816 57.27 57.27 0 0 0 15.643 6.593 56.813 56.813 0 0 0 14.044 1.755 59.915 59.915 0 0 0 11.743-1.185 28.427 28.427 0 0 1-56.836-.983Zm39.511 41.993v.757a10.76 10.76 0 1 1-21.52 0v-.596a43.37 43.37 0 0 0 21.52-.16Zm-58.847 34.723a29.745 29.745 0 0 1 11.523-10.956l15.468-8.24a25.73 25.73 0 0 0 42.01.24l15.007 7.998A29.755 29.755 0 0 1 452 147.95a20.941 20.941 0 0 1-20.95 20.95h-62.14a20.974 20.974 0 0 1-20.95-20.95 29.833 29.833 0 0 1 4.253-15.344Zm-296.37 200.24c.115.063.227.131.347.19.076.036.154.06.23.094a7.462 7.462 0 0 0 .883.325c.118.036.236.073.355.102.198.05.396.085.595.117.097.016.194.037.291.049a7.457 7.457 0 0 0 .897.058c.038 0 .076-.007.114-.008a7.496 7.496 0 0 0 .885-.062c.122-.016.24-.048.361-.07.209-.039.417-.076.621-.132.13-.035.255-.084.383-.127.19-.063.38-.125.565-.203.128-.054.25-.12.376-.181.176-.086.35-.172.52-.272.124-.074.243-.157.364-.238.157-.106.314-.214.464-.333.12-.095.234-.197.348-.3.137-.122.272-.247.4-.381a7.4 7.4 0 0 0 .325-.364 7.45 7.45 0 0 0 .618-.847c.049-.078.106-.148.153-.228.069-.12.125-.242.186-.363.024-.048.056-.089.079-.137l14.46-30a7.5 7.5 0 0 0-13.513-6.512l-6.57 13.629a201.197 201.197 0 0 1-6.428-58.68c2.009-53.543 25.006-103.34 64.757-140.216 39.75-36.876 91.133-56.071 144.673-54.07A201.77 201.77 0 0 1 323.917 65.3a7.5 7.5 0 1 0 5.043-14.127 216.737 216.737 0 0 0-64.815-12.477c-57.551-2.164-112.75 18.461-155.438 58.062s-67.386 93.104-69.544 150.65a216.131 216.131 0 0 0 6.737 62.368l-11.524-6.667a7.5 7.5 0 1 0-7.512 12.983l28.826 16.678c.05.029.103.047.153.075ZM362.799 256A106.799 106.799 0 1 0 256 362.8 106.92 106.92 0 0 0 362.799 256ZM164.2 256A91.799 91.799 0 1 1 256 347.8 91.903 91.903 0 0 1 164.201 256Zm326.056-36.345-26.51-20.156c-.075-.056-.153-.103-.23-.156-.078-.055-.15-.116-.232-.168-.028-.018-.057-.032-.084-.049-.12-.076-.242-.143-.365-.21-.097-.055-.194-.111-.293-.16-.126-.064-.255-.118-.384-.174-.1-.043-.2-.088-.303-.127-.125-.048-.253-.087-.38-.127-.109-.035-.217-.072-.326-.101-.122-.033-.245-.057-.368-.084-.116-.025-.233-.052-.35-.071-.118-.02-.237-.031-.356-.045-.122-.014-.244-.03-.366-.038-.118-.008-.236-.008-.354-.01-.122-.003-.244-.007-.366-.004-.12.004-.24.015-.36.025-.119.009-.237.016-.355.03-.124.017-.247.04-.37.062-.112.02-.224.037-.335.062-.126.028-.25.064-.375.099-.106.03-.213.056-.317.09-.125.041-.247.09-.37.137-.101.04-.204.076-.305.12-.118.052-.233.111-.35.169-.1.05-.203.1-.303.155-.107.06-.21.127-.315.192-.104.065-.208.128-.309.198-.094.065-.185.138-.277.208-.105.08-.21.16-.311.247-.083.07-.161.147-.24.221-.104.097-.207.193-.306.296-.074.078-.145.161-.216.243-.095.108-.19.215-.278.33-.02.025-.041.046-.06.071-.057.075-.103.153-.157.229-.055.078-.115.152-.168.233l-18.103 27.953a7.5 7.5 0 1 0 12.59 8.154l8.175-12.623a202.213 202.213 0 0 1 2.374 26.326c1.284 53.566-18.611 104.68-56.022 143.93-37.41 39.248-87.513 61.57-141.079 62.853a201.824 201.824 0 0 1-54.282-6.085 7.5 7.5 0 0 0-3.672 14.543 217.01 217.01 0 0 0 53.113 6.6q2.6 0 5.2-.061c57.572-1.38 111.403-25.353 151.578-67.501s61.54-97.067 60.16-154.638a217.237 217.237 0 0 0-2.413-27.342l10.647 8.095a7.5 7.5 0 0 0 9.078-11.94Zm-334.94 216.856-17.236-9.187c.004-.195.02-.389.02-.584v-8.047a43.388 43.388 0 0 0 17.35-34.704v-12.46a43.43 43.43 0 0 0-86.861 0v12.46a43.392 43.392 0 0 0 17.99 35.167v7.584c0 .086.007.17.008.256l-17.87 9.518A44.814 44.814 0 0 0 45 476.05 35.99 35.99 0 0 0 80.95 512h62.14a35.94 35.94 0 0 0 35.95-35.95 44.714 44.714 0 0 0-23.722-39.539ZM83.59 383.99v-12.46a28.427 28.427 0 0 1 56.788-1.932 43.746 43.746 0 0 1-22.041.268 42.286 42.286 0 0 1-11.548-4.873 7.5 7.5 0 1 0-7.794 12.817 56.86 56.86 0 0 0 29.689 8.347 59.913 59.913 0 0 0 11.742-1.184 28.427 28.427 0 0 1-56.836-.983Zm39.51 41.993v.758a10.76 10.76 0 1 1-21.52 0v-.598a43.37 43.37 0 0 0 21.52-.16Zm34.807 64.885A20.815 20.815 0 0 1 143.09 497H80.95A20.974 20.974 0 0 1 60 476.05a29.816 29.816 0 0 1 15.776-26.3l15.47-8.24a25.729 25.729 0 0 0 42.008.24l15.009 7.999a29.742 29.742 0 0 1 15.777 26.301 20.815 20.815 0 0 1-6.133 14.817ZM268.5 320.379a7.5 7.5 0 0 0 5.422-12.68l-28.5-29.84a37.605 37.605 0 0 0 29.814-29.359h8.263a7.5 7.5 0 0 0 0-15h-8.255a37.344 37.344 0 0 0-6.765-15h15.02a7.5 7.5 0 0 0 0-15h-55a7.5 7.5 0 0 0 0 15h10a22.535 22.535 0 0 1 21.21 15H228.5a7.5 7.5 0 0 0 0 15h31.21a22.535 22.535 0 0 1-21.21 15h-10a7.5 7.5 0 0 0-5.423 12.68l40 41.88a7.477 7.477 0 0 0 5.424 2.32Z" class="color3c3b41 svgShape"></path></svg></g></svg>