<svg xmlns="http://www.w3.org/2000/svg" viewBox="0 0 512 512" id="upimoneytransfer"><path fill="#9ae45f" d="M282 459.532h140.94V504.5l81.56-81.56-81.56-81.561v44.969H282" class="color24b378 svgShape"></path><path fill="#26d7fe" d="M422.94 341.379v30l51.56 51.561-51.56 51.56v30l81.56-81.56-81.56-81.561z" class="color19ac66 svgShape"></path><path fill="#9ae45f" d="M231 125.652H89.06v44.969L7.5 89.06 89.06 7.5v44.968H231" class="color24b378 svgShape"></path><circle cx="256" cy="256" r="155" fill="#d45985" class="colorffffff svgShape"></circle><path fill="#eaeaea" d="M256 101a156.241 156.241 0 0 0-22.5 1.631 155.012 155.012 0 0 1 0 306.738A155.005 155.005 0 1 0 256 101Z" class="coloreaeaea svgShape"></path><path fill="#9ae45f" d="m338.566 259.433-81.327 77.885a4.754 4.754 0 0 1-8.041-3.434V178.116a4.754 4.754 0 0 1 8.041-3.434l81.327 77.885a4.754 4.754 0 0 1 0 6.866Z" class="color24b378 svgShape"></path><path fill="#26d7fe" d="m338.566 252.567-81.327-77.885a4.754 4.754 0 0 0-8.041 3.434v3.23l74.368 71.22a4.754 4.754 0 0 1 0 6.867l-74.368 71.22v3.231a4.754 4.754 0 0 0 8.041 3.434l81.327-77.885a4.754 4.754 0 0 0 0-6.866Z" class="color19ac66 svgShape"></path><path fill="#f94d42" d="m291.337 259.433-81.327 77.885a4.754 4.754 0 0 1-8.042-3.434V178.116a4.754 4.754 0 0 1 8.042-3.434l81.327 77.885a4.754 4.754 0 0 1 0 6.866Z" class="colorf9a242 svgShape"></path><path fill="#d85b53" d="m291.336 252.567-81.326-77.885a4.754 4.754 0 0 0-8.042 3.434v3.23l74.368 71.22a4.753 4.753 0 0 1 0 6.867l-74.368 71.22v3.231a4.754 4.754 0 0 0 8.042 3.434l81.326-77.885a4.753 4.753 0 0 0 0-6.866Z" class="colorf69531 svgShape"></path><path fill="#413b3b" d="M262.426 169.261a12.255 12.255 0 0 0-20.726 8.86v16.526l-26.503-25.381a12.254 12.254 0 0 0-20.73 8.85v155.768a12.252 12.252 0 0 0 20.73 8.85l26.503-25.38v16.526a12.253 12.253 0 0 0 20.728 8.857l81.335-77.894a12.255 12.255 0 0 0-.005-17.69Zm-52.958 158.19V184.55L284.078 256Zm47.232.001v-24.464l39.824-38.138a12.253 12.253 0 0 0 0-17.7L256.7 209.013v-24.464L331.31 256Zm253.104 90.185-81.56-81.56a7.5 7.5 0 0 0-12.804 5.303v37.47h-53.183A162.183 162.183 0 0 0 418.5 256c0-89.602-72.897-162.5-162.5-162.5a161.518 161.518 0 0 0-85.944 24.65H89.06a7.5 7.5 0 0 0-7.5 7.5v26.864L18.106 89.06 81.56 25.607V52.47a7.5 7.5 0 0 0 7.5 7.5h134.83a7.5 7.5 0 0 0 0-15H96.56V7.5a7.5 7.5 0 0 0-12.804-5.303l-81.56 81.56a7.5 7.5 0 0 0 0 10.606l81.56 81.56a7.5 7.5 0 0 0 12.804-5.303v-37.47h53.183A162.183 162.183 0 0 0 93.5 256c0 89.603 72.897 162.5 162.5 162.5a161.518 161.518 0 0 0 85.944-24.65h80.996a7.5 7.5 0 0 0 7.5-7.5v-26.863l63.454 63.453-63.454 63.454V459.53a7.5 7.5 0 0 0-7.5-7.5H288.11a7.5 7.5 0 1 0 0 15h127.33v37.47a7.5 7.5 0 0 0 12.804 5.303l81.56-81.56a7.5 7.5 0 0 0 0-10.606ZM256 403.5c-81.332 0-147.5-66.168-147.5-147.5S174.668 108.5 256 108.5 403.5 174.67 403.5 256 337.332 403.5 256 403.5Z" class="color3c3b41 svgShape"></path></svg>