<svg id="SvgjsSvg1027" width="288" height="288" xmlns="http://www.w3.org/2000/svg" version="1.1" xmlns:xlink="http://www.w3.org/1999/xlink" xmlns:svgjs="http://svgjs.com/svgjs"><defs id="SvgjsDefs1028"></defs><g id="SvgjsG1029"><svg xmlns="http://www.w3.org/2000/svg" xmlns:xlink="http://www.w3.org/1999/xlink" viewBox="0 0 48 48" width="288" height="288"><defs><linearGradient id="b" x1="868.253" x2="937.656" y1="521.354" y2="588.736" gradientTransform="translate(-1524.894 267.344) scale(1.53785)" gradientUnits="userSpaceOnUse" xlink:href="#a"></linearGradient><linearGradient id="a"><stop offset="0" stop-color="#46c3db" class="stopColor24f3d2 svgShape"></stop><stop offset=".394" stop-color="#2d6cdf" class="stopColor0674f0 svgShape"></stop><stop offset=".507" stop-color="#617fb5" class="stopColor6961b5 svgShape"></stop><stop offset=".813" stop-color="#f3f046" class="stopColorf34660 svgShape"></stop><stop offset="1" stop-color="#482ff7" class="stopColoree078d svgShape"></stop></linearGradient></defs><g transform="translate(197.926 -1060.363)"><rect width="48" height="48" x="-197.926" y="1060.363" fill="url(#b)" rx="10.144" ry="10.144"></rect><path fill="#dddb53" style="line-height:normal;-inkscape-font-specification:Sans;text-indent:0;text-align:start;text-decoration-line:none;text-transform:none;block-progression:tb;marker:none" d="M20.594 12.5c-.122.206-.163.466-.344.594-.344.243-.764.38-1.156.406h-2.25c-.96 0-1.719.768-1.719 1.75v2.125c.117-.082.23-.149.344-.25.197-.176.364-.37.5-.531.135-.161.205-.318.187-.25a.512.512 0 0 1 .375-.375.515.515 0 0 1 .563.25c.29.504.624.691 1.062.812.439.121.984.118 1.563.094.578-.026 1.186-.047 1.781.063.216.04.418.117.625.218V14.312c-.088-.593-.27-1.07-.531-1.374-.232-.27-.576-.395-1-.438zm-3.782 4.656c-.024.03-.036.063-.062.094-.175.207-.396.42-.625.625a5.565 5.565 0 0 1-.719.531c-.087.056-.194.107-.281.157V20c0 .977.382 1.855 1 2.496v1.541c0 .926 1.002 1.789 1.719 2.563l.062.062.75.719.782-.719.03-.031c.876-.746 1.259-1.512 1.657-2.25V22.496c.618-.641 1-1.52 1-2.496v-1.313c-.203-.31-.43-.46-.813-.53-.413-.077-.967-.057-1.562-.032-.595.025-1.241.05-1.875-.125-.41-.113-.716-.515-1.063-.844zm6.313 2.344v.5c0 1.062-.396 2.035-1 2.813v2.406l5.031 2.843c1.23.703 1.969 2.023 1.969 3.438v2h6.125l1.875-.031V19.5h-14zm-8.375 7.063-4.031 2.312a3.16 3.16 0 0 0-1.594 2.719V35.5h3v-3h1v3h5v-5.844l-.656-.625-1.875.907v.03c-.718.341-1.563-.315-1.469-1.093v-.031l.031-.032.594-2.25zm1.031.093L15.125 29c-.004.03-.002.02 0 .031v.032h.031l1.656-.844c-.41-.477-.716-1.01-1.03-1.563zm6.875 0c.043.165.075.302.125.469.254.844.532 1.656.532 1.656v.032l.03.062c.101.793-.771 1.424-1.5 1.094l-1.968-.938-.719.657V35.5h5v-3h1v3h2.969v-4c0-1.058-.55-2.038-1.469-2.563l-4-2.28zm-.968.157c-.247.459-.659.927-1.125 1.437l1.687.813h.031c.024.004.029-.039.032-.063-.028-.086-.226-.787-.47-1.594-.062-.207-.098-.394-.155-.593zM20.625 31.5a.5.5 0 1 1 0 1 .5.5 0 0 1 0-1zm0 2a.5.5 0 1 1 0 1 .5.5 0 0 1 0-1zm8.5 1v1h8.25c.757 0 1.249-.458 1.5-1h-9.75z" color="#000" font-family="Sans" font-weight="400" overflow="visible" transform="translate(-197.926 1060.363)" class="colorfff svgShape"></path></g></svg></g></svg>